<?xml version="1.0" standalone="no"?>
<!DOCTYPE svg PUBLIC "-//W3C//DTD SVG 20010904//EN"
 "http://www.w3.org/TR/2001/REC-SVG-20010904/DTD/svg10.dtd">
<svg version="1.0" xmlns="http://www.w3.org/2000/svg"
 width="82.000000pt" height="82.000000pt" viewBox="0 0 82.000000 82.000000"
 preserveAspectRatio="xMidYMid meet">
<metadata>
Created by potrace 1.11, written by Peter Selinger 2001-2013
</metadata>
<g transform="translate(0.000000,82.000000) scale(0.100000,-0.100000)"
fill="#000000" stroke="none">
<path d="M314 779 c-67 -16 -146 -69 -182 -123 -18 -27 -31 -51 -29 -52 6 -6
267 23 274 30 4 3 -10 6 -30 6 -60 0 -85 42 -47 80 35 35 120 21 120 -21 0
-31 42 -66 88 -74 23 -4 45 -12 49 -18 10 -15 16 -85 14 -164 -1 -61 0 -63 36
-87 20 -14 40 -23 45 -20 4 3 15 30 24 61 53 183 -76 370 -267 387 -30 3 -72
1 -95 -5z"/>
<path d="M92 568 c-17 -17 -15 -136 4 -192 20 -59 93 -138 158 -170 47 -23 51
-23 82 -9 38 19 104 129 104 177 0 17 9 42 20 56 31 40 25 63 -29 108 l-50 42
-138 0 c-95 0 -143 -4 -151 -12z"/>
<path d="M466 240 c-59 -75 -31 -80 82 -13 l44 25 -36 24 c-19 13 -37 24 -39
24 -2 0 -25 -27 -51 -60z"/>
<path d="M725 240 c10 -11 20 -20 23 -20 3 0 -3 9 -13 20 -10 11 -20 20 -23
20 -3 0 3 -9 13 -20z"/>
</g>
</svg>
